<svg 
 xmlns="http://www.w3.org/2000/svg"
 xmlns:xlink="http://www.w3.org/1999/xlink"
 width="42px" height="52px">
<path fill-rule="evenodd"  fill="rgb(255, 255, 255)"
 d="M37.958,51.413 L3.991,51.413 C2.211,51.413 0.756,49.976 0.756,48.219 L0.756,5.302 L7.476,5.302 L12.069,0.310 L37.958,0.310 C39.738,0.310 41.193,1.747 41.193,3.504 L41.193,48.219 C41.193,49.976 39.738,51.413 37.958,51.413 ZM16.213,14.713 C15.899,14.311 15.511,14.050 15.046,13.931 C14.744,13.851 14.095,13.811 13.100,13.811 L10.475,13.811 L10.475,21.813 L12.112,21.813 L12.112,18.792 L13.180,18.792 C13.921,18.792 14.487,18.755 14.877,18.678 C15.164,18.616 15.447,18.490 15.726,18.300 C16.004,18.108 16.232,17.846 16.413,17.511 C16.594,17.176 16.683,16.762 16.683,16.273 C16.683,15.636 16.526,15.116 16.213,14.713 ZM24.551,15.996 C24.374,15.483 24.114,15.052 23.776,14.699 C23.436,14.344 23.029,14.100 22.553,13.961 C22.199,13.860 21.685,13.808 21.010,13.808 L18.019,13.808 L18.019,21.810 L21.099,21.810 C21.706,21.810 22.189,21.754 22.550,21.643 C23.032,21.489 23.417,21.277 23.700,21.004 C24.075,20.643 24.365,20.172 24.567,19.590 C24.734,19.113 24.816,18.546 24.816,17.888 C24.816,17.137 24.727,16.508 24.551,15.996 ZM31.773,13.809 L26.215,13.809 L26.215,21.810 L27.852,21.810 L27.852,18.410 L31.236,18.410 L31.236,17.058 L27.852,17.058 L27.852,15.162 L31.773,15.162 L31.773,13.809 ZM33.095,33.847 L8.855,33.847 L8.855,35.443 L33.095,35.443 L33.095,33.847 ZM33.095,39.502 L8.855,39.502 L8.855,41.098 L33.095,41.098 L33.095,39.502 ZM22.532,20.052 C22.357,20.208 22.137,20.318 21.872,20.384 C21.670,20.435 21.340,20.462 20.882,20.462 L19.659,20.462 L19.659,15.162 L20.395,15.162 C21.064,15.162 21.510,15.188 21.740,15.238 C22.045,15.304 22.298,15.429 22.497,15.615 C22.697,15.799 22.851,16.058 22.962,16.388 C23.072,16.721 23.129,17.195 23.129,17.814 C23.129,18.434 23.074,18.921 22.962,19.281 C22.851,19.640 22.709,19.897 22.532,20.052 ZM14.302,17.307 C14.086,17.391 13.654,17.433 13.008,17.433 L12.112,17.433 L12.112,15.162 L12.903,15.162 C13.494,15.162 13.885,15.181 14.081,15.216 C14.346,15.262 14.566,15.382 14.739,15.572 C14.912,15.761 14.999,16.002 14.999,16.293 C14.999,16.527 14.938,16.735 14.813,16.914 C14.690,17.093 14.519,17.224 14.302,17.307 Z"/>
</svg>