<svg 
	 xmlns="http://www.w3.org/2000/svg"
	 xmlns:xlink="http://www.w3.org/1999/xlink"
	 width="20px" height="20px">
	<path fill-rule="evenodd"  fill="rgb(165, 173, 179)"
	 d="M13.371,12.571 L14.286,12.571 L20.000,18.285 L18.286,20.000 L12.571,14.285 L12.571,13.371 L12.228,13.028 C10.971,14.171 9.257,14.857 7.428,14.857 C3.314,14.857 -0.000,11.542 -0.000,7.428 C-0.000,3.314 3.314,-0.000 7.428,-0.000 C11.543,-0.000 14.857,3.314 14.857,7.428 C14.857,9.257 14.171,10.971 13.028,12.228 L13.371,12.571 ZM7.428,2.285 C4.571,2.285 2.286,4.571 2.286,7.428 C2.286,10.285 4.571,12.571 7.428,12.571 C10.286,12.571 12.571,10.285 12.571,7.428 C12.571,4.571 10.286,2.285 7.428,2.285 Z"/>
</svg>